<?xml version="1.0" encoding="utf-8"?>
<!-- Generator: Adobe Illustrator 16.0.0, SVG Export Plug-In . SVG Version: 6.00 Build 0)  -->
<!DOCTYPE svg PUBLIC "-//W3C//DTD SVG 1.1//EN" "http://www.w3.org/Graphics/SVG/1.1/DTD/svg11.dtd">
<svg version="1.1" id="Capa_1" xmlns="http://www.w3.org/2000/svg" xmlns:xlink="http://www.w3.org/1999/xlink" x="0px" y="0px"
	 width="595.279px" height="841.891px" viewBox="0 0 595.279 841.891" enable-background="new 0 0 595.279 841.891"
	 xml:space="preserve">
<g>
	<g>
		<g>
			<path fill="#C183FA" d="M585.359,698.742H525.83V371.339c0-5.479-4.442-9.922-9.921-9.922H377.011v-228.19
				c0-5.479-4.442-9.922-9.922-9.922H109.135c-5.479,0-9.922,4.442-9.922,9.922v565.516H9.921c-5.479,0-9.921,4.443-9.921,9.922
				s4.442,9.922,9.921,9.922h575.438c5.479,0,9.921-4.443,9.921-9.922S590.838,698.742,585.359,698.742z M208.348,698.742h-39.686
				v-89.291c0-5.479,4.442-9.922,9.922-9.922h19.843c5.479,0,9.921,4.443,9.921,9.922V698.742z M248.033,371.339v327.403h-19.843
				v-89.291c0-16.439-13.325-29.764-29.764-29.764h-19.843c-16.438,0-29.765,13.324-29.765,29.764v89.291h-29.764V143.147h238.112
				v218.27h-99.214C252.476,361.417,248.033,365.859,248.033,371.339z M505.988,698.742H267.876V381.26h238.111V698.742z"/>
			<path fill="#C183FA" d="M317.483,262.204h-59.528c-5.479,0-9.921,4.442-9.921,9.921v59.528c0,5.479,4.442,9.921,9.921,9.921
				h59.528c5.479,0,9.921-4.442,9.921-9.921v-59.528C327.404,266.646,322.961,262.204,317.483,262.204z M307.561,321.731h-39.685
				v-39.685h39.685V321.731z"/>
			<path fill="#C183FA" d="M317.483,162.99h-59.528c-5.479,0-9.921,4.442-9.921,9.922v59.527c0,5.479,4.442,9.922,9.921,9.922
				h59.528c5.479,0,9.921-4.442,9.921-9.922v-59.527C327.404,167.433,322.961,162.99,317.483,162.99z M307.561,222.519h-39.685
				v-39.686h39.685V222.519z"/>
			<path fill="#C183FA" d="M218.27,262.204h-59.528c-5.479,0-9.922,4.442-9.922,9.921v59.528c0,5.479,4.442,9.921,9.922,9.921
				h59.528c5.479,0,9.921-4.442,9.921-9.921v-59.528C228.191,266.646,223.748,262.204,218.27,262.204z M208.348,321.731h-39.686
				v-39.685h39.686V321.731z"/>
			<path fill="#C183FA" d="M218.27,162.99h-59.528c-5.479,0-9.922,4.442-9.922,9.922v59.527c0,5.479,4.442,9.922,9.922,9.922h59.528
				c5.479,0,9.921-4.442,9.921-9.922v-59.527C228.191,167.433,223.748,162.99,218.27,162.99z M208.348,222.519h-39.686v-39.686
				h39.686V222.519z"/>
			<path fill="#C183FA" d="M218.27,361.417h-59.528c-5.479,0-9.922,4.442-9.922,9.922v59.528c0,5.479,4.442,9.922,9.922,9.922
				h59.528c5.479,0,9.921-4.443,9.921-9.922v-59.528C228.191,365.859,223.748,361.417,218.27,361.417z M208.348,420.945h-39.686
				V381.26h39.686V420.945z"/>
			<path fill="#C183FA" d="M218.27,460.631h-59.528c-5.479,0-9.922,4.441-9.922,9.922v59.527c0,5.479,4.442,9.922,9.922,9.922
				h59.528c5.479,0,9.921-4.443,9.921-9.922v-59.527C228.191,465.072,223.748,460.631,218.27,460.631z M208.348,520.158h-39.686
				v-39.686h39.686V520.158z"/>
			<path fill="#C183FA" d="M406.775,579.688h59.528c5.479,0,9.921-4.443,9.921-9.922v-59.527c0-5.48-4.442-9.922-9.921-9.922
				h-59.528c-5.479,0-9.921,4.441-9.921,9.922v59.527C396.854,575.244,401.295,579.688,406.775,579.688z M416.696,520.158h39.686
				v39.686h-39.686V520.158z"/>
			<path fill="#C183FA" d="M406.775,480.473h59.528c5.479,0,9.921-4.441,9.921-9.92v-59.529c0-5.479-4.442-9.921-9.921-9.921
				h-59.528c-5.479,0-9.921,4.442-9.921,9.921v59.529C396.854,476.031,401.295,480.473,406.775,480.473z M416.696,420.945h39.686
				v39.686h-39.686V420.945z"/>
			<path fill="#C183FA" d="M406.775,678.9h59.528c5.479,0,9.921-4.441,9.921-9.922v-59.527c0-5.479-4.442-9.922-9.921-9.922h-59.528
				c-5.479,0-9.921,4.443-9.921,9.922v59.527C396.854,674.459,401.295,678.9,406.775,678.9z M416.696,619.373h39.686v39.686h-39.686
				V619.373z"/>
			<path fill="#C183FA" d="M307.561,579.688h59.528c5.479,0,9.922-4.443,9.922-9.922v-59.527c0-5.48-4.442-9.922-9.922-9.922
				h-59.528c-5.479,0-9.921,4.441-9.921,9.922v59.527C297.64,575.244,302.082,579.688,307.561,579.688z M317.483,520.158h39.686
				v39.686h-39.686V520.158z"/>
			<path fill="#C183FA" d="M307.561,480.473h59.528c5.479,0,9.922-4.441,9.922-9.92v-59.529c0-5.479-4.442-9.921-9.922-9.921
				h-59.528c-5.479,0-9.921,4.442-9.921,9.921v59.529C297.64,476.031,302.082,480.473,307.561,480.473z M317.483,420.945h39.686
				v39.686h-39.686V420.945z"/>
			<path fill="#C183FA" d="M307.561,678.9h59.528c5.479,0,9.922-4.441,9.922-9.922v-59.527c0-5.479-4.442-9.922-9.922-9.922h-59.528
				c-5.479,0-9.921,4.443-9.921,9.922v59.527C297.64,674.459,302.082,678.9,307.561,678.9z M317.483,619.373h39.686v39.686h-39.686
				V619.373z"/>
		</g>
	</g>
</g>
</svg>
