<?xml version="1.0" encoding="utf-8"?>
<!-- Generator: Adobe Illustrator 16.0.0, SVG Export Plug-In . SVG Version: 6.00 Build 0)  -->
<!DOCTYPE svg PUBLIC "-//W3C//DTD SVG 1.1//EN" "http://www.w3.org/Graphics/SVG/1.1/DTD/svg11.dtd">
<svg version="1.1" id="Capa_1" xmlns="http://www.w3.org/2000/svg" xmlns:xlink="http://www.w3.org/1999/xlink" x="0px" y="0px"
	 width="595.279px" height="841.891px" viewBox="0 0 595.279 841.891" enable-background="new 0 0 595.279 841.891"
	 xml:space="preserve">
<g opacity="0">
	<g>
		<path fill="#C183FA" d="M52.367,372.719h144.679c28.863,0,52.367-23.504,52.367-52.367v-144.68
			c0-28.863-23.504-52.367-52.367-52.367H52.367C23.504,123.305,0,146.809,0,175.672v144.558
			C0,349.214,23.504,372.719,52.367,372.719z M29.837,175.672c0-12.422,10.108-22.53,22.53-22.53h144.679
			c12.422,0,22.53,10.108,22.53,22.53v144.558c0,12.422-10.108,22.53-22.53,22.53H52.367c-12.422,0-22.53-10.108-22.53-22.53
			V175.672z"/>
		<path fill="#C183FA" d="M422.347,256.049c0-19.729-16.076-35.804-35.927-35.804h-80.864c-19.729,0-35.926,16.075-35.926,35.804
			v80.865c0,19.729,16.075,35.926,35.926,35.926h80.864c19.729,0,35.927-16.076,35.927-35.926V256.049z M392.51,336.792
			c0,3.288-2.68,6.089-6.09,6.089h-80.864c-3.288,0-6.089-2.679-6.089-6.089v-80.865c0-3.288,2.679-5.967,6.089-5.967h80.864
			c3.288,0,6.09,2.679,6.09,5.967V336.792z"/>
		<path fill="#C183FA" d="M595.28,256.049c0-19.729-16.075-35.804-35.804-35.804h-80.865c-19.729,0-35.926,16.075-35.926,35.804
			v80.865c0,19.729,16.075,35.926,35.926,35.926h80.865c19.729,0,35.804-16.076,35.804-35.926V256.049z M565.443,336.792
			c0,3.288-2.679,6.089-5.967,6.089h-80.865c-3.288,0-6.089-2.679-6.089-6.089v-80.865c0-3.288,2.68-5.967,6.089-5.967h80.865
			c3.288,0,5.967,2.679,5.967,5.967V336.792z"/>
		<path fill="#C183FA" d="M422.347,428.982c0-19.729-16.076-35.804-35.927-35.804h-80.864c-19.729,0-35.926,16.076-35.926,35.804
			v80.865c0,19.729,16.075,35.926,35.926,35.926h80.864c19.729,0,35.927-16.075,35.927-35.926V428.982z M392.51,509.726
			c0,3.288-2.68,6.089-6.09,6.089h-80.864c-3.288,0-6.089-2.679-6.089-6.089v-80.864c0-3.288,2.679-5.968,6.089-5.968h80.864
			c3.288,0,6.09,2.68,6.09,5.968V509.726z"/>
		<path fill="#C183FA" d="M595.28,428.982c0-19.729-16.075-35.804-35.804-35.804h-80.865c-19.729,0-35.926,16.076-35.926,35.804
			v80.865c0,19.729,16.075,35.926,35.926,35.926h80.865c19.729,0,35.804-16.075,35.804-35.926V428.982z M565.443,509.726
			c0,3.288-2.679,6.089-5.967,6.089h-80.865c-3.288,0-6.089-2.679-6.089-6.089v-80.864c0-3.288,2.68-5.968,6.089-5.968h80.865
			c3.288,0,5.967,2.68,5.967,5.968V509.726z"/>
		<path fill="#C183FA" d="M132.744,393.057c-19.729,0-35.926,16.075-35.926,35.805v80.864c0,19.729,16.075,35.927,35.926,35.927
			h80.865c19.729,0,35.926-16.076,35.926-35.927v-80.864c0-19.729-16.075-35.805-35.926-35.805H132.744z M219.576,428.982v80.865
			c0,3.288-2.679,6.089-6.089,6.089h-80.865c-3.288,0-6.089-2.679-6.089-6.089v-80.865c0-3.288,2.68-5.967,6.089-5.967h80.865
			C216.898,422.894,219.576,425.573,219.576,428.982z"/>
		<path fill="#C183FA" d="M386.42,565.99h-80.864c-19.729,0-35.926,16.075-35.926,35.926v80.864
			c0,19.729,16.075,35.805,35.926,35.805h80.864c19.729,0,35.927-16.075,35.927-35.805v-80.864
			C422.347,582.065,406.272,565.99,386.42,565.99z M392.51,682.78c0,3.289-2.68,5.968-6.09,5.968h-80.864
			c-3.288,0-6.089-2.679-6.089-5.968v-80.864c0-3.288,2.679-6.089,6.089-6.089h80.864c3.288,0,6.09,2.679,6.09,6.089V682.78z"/>
		<path fill="#C183FA" d="M559.476,565.99h-80.865c-19.729,0-35.926,16.075-35.926,35.926v80.864
			c0,19.729,16.075,35.805,35.926,35.805h80.865c19.729,0,35.804-16.075,35.804-35.805v-80.864
			C595.28,582.065,579.204,565.99,559.476,565.99z M565.443,682.78c0,3.289-2.679,5.968-5.967,5.968h-80.865
			c-3.288,0-6.089-2.679-6.089-5.968v-80.864c0-3.288,2.68-6.089,6.089-6.089h80.865c3.288,0,5.967,2.679,5.967,6.089V682.78z"/>
		<path fill="#C183FA" d="M132.744,718.585h80.865c19.729,0,35.926-16.075,35.926-35.805v-80.864
			c0-19.729-16.075-35.926-35.926-35.926h-80.865c-19.729,0-35.926,16.075-35.926,35.926v80.864
			C96.819,702.51,112.894,718.585,132.744,718.585z M126.656,601.916c0-3.288,2.679-6.089,6.089-6.089h80.865
			c3.288,0,6.089,2.679,6.089,6.089v80.864c0,3.289-2.68,5.968-6.089,5.968h-80.865c-3.288,0-6.089-2.679-6.089-5.968V601.916z"/>
	</g>
</g>
<path fill="#C183FA" d="M365.31,641.081v-44.848c0.023-31.714-13.842-61.847-37.938-82.467l-96.849-83.031
	c-2.189-1.875-3.447-4.614-3.447-7.492v-1.581c-0.005-2.883,1.253-5.626,3.447-7.502l96.849-83.012
	c24.097-20.625,37.957-50.758,37.938-82.477v-44.847c19.236-4.951,31.781-23.44,29.274-43.145
	c-2.507-19.709-19.285-34.467-39.148-34.443H39.471C19.608,126.212,2.83,140.97,0.319,160.679
	c-2.507,19.705,10.042,38.194,29.279,43.145v44.847c-0.024,31.714,13.837,61.847,37.933,82.467l96.854,83.031
	c2.188,1.875,3.447,4.614,3.447,7.492v1.581c0,2.883-1.258,5.627-3.447,7.502l-96.854,83.012
	c-24.091,20.625-37.953,50.758-37.933,82.477v44.848c-19.237,4.951-31.787,23.44-29.279,43.145
	c2.512,19.71,19.29,34.468,39.153,34.443h315.964c19.863,0.024,36.642-14.733,39.148-34.443
	C397.091,664.521,384.546,646.032,365.31,641.081z M49.345,608.379c21.965-2.777,43.319-9.17,63.192-18.919
	c26.324-13.172,55.487-19.666,84.917-18.899c29.424-0.767,58.587,5.728,84.916,18.899c19.874,9.749,41.226,16.142,63.192,18.919
	v31.299H49.345V608.379z M19.724,165.732c0-10.906,8.842-19.748,19.748-19.748h315.964c10.905,0,19.748,8.842,19.748,19.748
	s-8.843,19.748-19.748,19.748H39.471C28.566,185.479,19.724,176.638,19.724,165.732z M49.345,205.228h296.216v43.444
	c0.005,15.987-4.301,31.68-12.473,45.421H61.823c-8.177-13.741-12.487-29.434-12.478-45.421V205.228z M80.38,528.756l96.849-83.021
	c6.571-5.626,10.351-13.842,10.351-22.491v-1.581c0.005-8.645-3.775-16.865-10.351-22.481L80.38,316.14
	c-0.849-0.718-1.601-1.538-2.42-2.3h238.969c-0.83,0.762-1.572,1.582-2.431,2.31l-96.854,83.021
	c-6.557,5.631-10.327,13.847-10.317,22.491v1.581c-0.005,8.645,3.775,16.865,10.347,22.481l96.854,83.041
	c17.631,15.114,28.624,36.555,30.61,59.696c-19.039-2.768-37.524-8.519-54.774-17.043c-28.836-14.314-60.728-21.387-92.91-20.605
	c-32.187-0.781-64.074,6.291-92.915,20.605c-17.246,8.524-35.73,14.275-54.769,17.043C51.756,565.32,62.748,543.88,80.38,528.756z
	 M355.436,698.921H39.471c-10.905,0-19.748-8.842-19.748-19.747c0-10.906,8.842-19.748,19.748-19.748h315.964
	c10.905,0,19.748,8.842,19.748,19.748C375.184,690.079,366.341,698.921,355.436,698.921z"/>
<path fill="#C183FA" d="M187.549,442.2h19.748v19.748h-19.748V442.2z"/>
<path fill="#C183FA" d="M187.549,481.696h19.748v19.747h-19.748V481.696z"/>
<path fill="#C183FA" d="M187.549,521.191h19.748v19.748h-19.748V521.191z"/>
</svg>
