<?xml version="1.0" encoding="utf-8"?>
<!-- Generator: Adobe Illustrator 16.0.0, SVG Export Plug-In . SVG Version: 6.00 Build 0)  -->
<!DOCTYPE svg PUBLIC "-//W3C//DTD SVG 1.1//EN" "http://www.w3.org/Graphics/SVG/1.1/DTD/svg11.dtd">
<svg version="1.1" id="Capa_1" xmlns="http://www.w3.org/2000/svg" xmlns:xlink="http://www.w3.org/1999/xlink" x="0px" y="0px"
	 width="595.279px" height="841.891px" viewBox="0 0 595.279 841.891" enable-background="new 0 0 595.279 841.891"
	 xml:space="preserve">
<g>
	<g>
		<path fill="#C183FA" d="M52.367,372.719h144.679c28.863,0,52.367-23.504,52.367-52.367v-144.68
			c0-28.863-23.504-52.367-52.367-52.367H52.367C23.504,123.305,0,146.809,0,175.672v144.558
			C0,349.214,23.504,372.719,52.367,372.719z M29.837,175.672c0-12.422,10.108-22.53,22.53-22.53h144.679
			c12.422,0,22.53,10.108,22.53,22.53v144.558c0,12.422-10.108,22.53-22.53,22.53H52.367c-12.422,0-22.53-10.108-22.53-22.53
			V175.672z"/>
		<path fill="#C183FA" d="M422.347,256.049c0-19.729-16.076-35.804-35.927-35.804h-80.864c-19.729,0-35.926,16.075-35.926,35.804
			v80.865c0,19.729,16.075,35.926,35.926,35.926h80.864c19.729,0,35.927-16.076,35.927-35.926V256.049z M392.51,336.792
			c0,3.288-2.68,6.089-6.09,6.089h-80.864c-3.288,0-6.089-2.679-6.089-6.089v-80.865c0-3.288,2.679-5.967,6.089-5.967h80.864
			c3.288,0,6.09,2.679,6.09,5.967V336.792z"/>
		<path fill="#C183FA" d="M595.28,256.049c0-19.729-16.075-35.804-35.804-35.804h-80.865c-19.729,0-35.926,16.075-35.926,35.804
			v80.865c0,19.729,16.075,35.926,35.926,35.926h80.865c19.729,0,35.804-16.076,35.804-35.926V256.049z M565.443,336.792
			c0,3.288-2.679,6.089-5.967,6.089h-80.865c-3.288,0-6.089-2.679-6.089-6.089v-80.865c0-3.288,2.68-5.967,6.089-5.967h80.865
			c3.288,0,5.967,2.679,5.967,5.967V336.792z"/>
		<path fill="#C183FA" d="M422.347,428.982c0-19.729-16.076-35.804-35.927-35.804h-80.864c-19.729,0-35.926,16.076-35.926,35.804
			v80.865c0,19.729,16.075,35.926,35.926,35.926h80.864c19.729,0,35.927-16.075,35.927-35.926V428.982z M392.51,509.726
			c0,3.288-2.68,6.089-6.09,6.089h-80.864c-3.288,0-6.089-2.679-6.089-6.089v-80.864c0-3.288,2.679-5.968,6.089-5.968h80.864
			c3.288,0,6.09,2.68,6.09,5.968V509.726z"/>
		<path fill="#C183FA" d="M595.28,428.982c0-19.729-16.075-35.804-35.804-35.804h-80.865c-19.729,0-35.926,16.076-35.926,35.804
			v80.865c0,19.729,16.075,35.926,35.926,35.926h80.865c19.729,0,35.804-16.075,35.804-35.926V428.982z M565.443,509.726
			c0,3.288-2.679,6.089-5.967,6.089h-80.865c-3.288,0-6.089-2.679-6.089-6.089v-80.864c0-3.288,2.68-5.968,6.089-5.968h80.865
			c3.288,0,5.967,2.68,5.967,5.968V509.726z"/>
		<path fill="#C183FA" d="M132.744,393.057c-19.729,0-35.926,16.075-35.926,35.805v80.864c0,19.729,16.075,35.927,35.926,35.927
			h80.865c19.729,0,35.926-16.076,35.926-35.927v-80.864c0-19.729-16.075-35.805-35.926-35.805H132.744z M219.576,428.982v80.865
			c0,3.288-2.679,6.089-6.089,6.089h-80.865c-3.288,0-6.089-2.679-6.089-6.089v-80.865c0-3.288,2.68-5.967,6.089-5.967h80.865
			C216.898,422.894,219.576,425.573,219.576,428.982z"/>
		<path fill="#C183FA" d="M386.42,565.99h-80.864c-19.729,0-35.926,16.075-35.926,35.926v80.864
			c0,19.729,16.075,35.805,35.926,35.805h80.864c19.729,0,35.927-16.075,35.927-35.805v-80.864
			C422.347,582.065,406.272,565.99,386.42,565.99z M392.51,682.78c0,3.289-2.68,5.968-6.09,5.968h-80.864
			c-3.288,0-6.089-2.679-6.089-5.968v-80.864c0-3.288,2.679-6.089,6.089-6.089h80.864c3.288,0,6.09,2.679,6.09,6.089V682.78z"/>
		<path fill="#C183FA" d="M559.476,565.99h-80.865c-19.729,0-35.926,16.075-35.926,35.926v80.864
			c0,19.729,16.075,35.805,35.926,35.805h80.865c19.729,0,35.804-16.075,35.804-35.805v-80.864
			C595.28,582.065,579.204,565.99,559.476,565.99z M565.443,682.78c0,3.289-2.679,5.968-5.967,5.968h-80.865
			c-3.288,0-6.089-2.679-6.089-5.968v-80.864c0-3.288,2.68-6.089,6.089-6.089h80.865c3.288,0,5.967,2.679,5.967,6.089V682.78z"/>
		<path fill="#C183FA" d="M132.744,718.585h80.865c19.729,0,35.926-16.075,35.926-35.805v-80.864
			c0-19.729-16.075-35.926-35.926-35.926h-80.865c-19.729,0-35.926,16.075-35.926,35.926v80.864
			C96.819,702.51,112.894,718.585,132.744,718.585z M126.656,601.916c0-3.288,2.679-6.089,6.089-6.089h80.865
			c3.288,0,6.089,2.679,6.089,6.089v80.864c0,3.289-2.68,5.968-6.089,5.968h-80.865c-3.288,0-6.089-2.679-6.089-5.968V601.916z"/>
	</g>
</g>
</svg>
