<?xml version="1.0" encoding="utf-8"?>
<!-- Generator: Adobe Illustrator 16.0.0, SVG Export Plug-In . SVG Version: 6.00 Build 0)  -->
<!DOCTYPE svg PUBLIC "-//W3C//DTD SVG 1.1//EN" "http://www.w3.org/Graphics/SVG/1.1/DTD/svg11.dtd">
<svg version="1.1" id="Layer_1" xmlns="http://www.w3.org/2000/svg" xmlns:xlink="http://www.w3.org/1999/xlink" x="0px" y="0px"
	 width="595.279px" height="841.891px" viewBox="0 0 595.279 841.891" enable-background="new 0 0 595.279 841.891"
	 xml:space="preserve">
<path fill="#C183FA" d="M565.233,126.396H129.704c-16.567,0-30.043,13.479-30.043,30.047v45.611H30.047
	C13.48,202.054,0,215.534,0,232.102V618.73c0,32.132,26.037,58.301,58.128,58.532h0.118c0.104,0.005,0.2,0.014,0.305,0.014h308.462
	c4.814,0,8.721-3.901,8.721-8.72c0-4.814-3.906-8.72-8.721-8.72H100.202c10.44-10.577,16.899-25.102,16.899-41.106V414.816
	c0-4.814-3.906-8.721-8.721-8.721c-4.818,0-8.72,3.906-8.72,8.721V618.73c0,22.59-18.321,40.979-40.888,41.102
	c-0.073,0-0.146-0.009-0.223-0.009c-22.668-0.005-41.111-18.439-41.111-41.093V232.102c0-6.948,5.654-12.607,12.607-12.607h69.614
	v162.768c0,4.818,3.901,8.72,8.72,8.72c4.814,0,8.721-3.901,8.721-8.72V156.443c0-6.953,5.654-12.607,12.603-12.607h435.528
	c6.953,0,12.607,5.654,12.607,12.607V618.73c0,22.667-18.443,41.106-41.11,41.106H399.568c-4.818,0-8.72,3.905-8.72,8.72
	c0,4.818,3.901,8.72,8.72,8.72H536.73c32.286,0,58.55-26.264,58.55-58.546V156.443C595.28,139.875,581.8,126.396,565.233,126.396z"
	/>
<path fill="#C183FA" d="M191.048,474.334h119.595c11.377,0,20.633-9.256,20.633-20.633V334.107c0-11.377-9.256-20.633-20.633-20.633
	H191.048c-11.377,0-20.633,9.256-20.633,20.633v119.594C170.415,465.078,179.671,474.334,191.048,474.334z M187.856,334.107
	c0-1.762,1.431-3.193,3.192-3.193h119.595c1.758,0,3.192,1.431,3.192,3.193v119.594c0,1.758-1.435,3.193-3.192,3.193H191.048
	c-1.762,0-3.192-1.436-3.192-3.193V334.107z"/>
<path fill="#C183FA" d="M362.971,330.914h161.841c4.814,0,8.721-3.901,8.721-8.72c0-4.818-3.906-8.72-8.721-8.72H362.971
	c-4.813,0-8.72,3.901-8.72,8.72C354.251,327.013,358.157,330.914,362.971,330.914z"/>
<path fill="#C183FA" d="M362.971,402.626h161.841c4.814,0,8.721-3.905,8.721-8.72c0-4.818-3.906-8.72-8.721-8.72H362.971
	c-4.813,0-8.72,3.901-8.72,8.72C354.251,398.721,358.157,402.626,362.971,402.626z"/>
<path fill="#C183FA" d="M362.971,474.334h161.841c4.814,0,8.721-3.905,8.721-8.72c0-4.818-3.906-8.72-8.721-8.72H362.971
	c-4.813,0-8.72,3.901-8.72,8.72C354.251,470.429,358.157,474.334,362.971,474.334z"/>
<path fill="#C183FA" d="M179.135,546.042h345.677c4.814,0,8.721-3.901,8.721-8.72c0-4.814-3.906-8.721-8.721-8.721H179.135
	c-4.813,0-8.72,3.906-8.72,8.721C170.415,542.141,174.322,546.042,179.135,546.042z"/>
<path fill="#C183FA" d="M179.135,617.754h345.677c4.814,0,8.721-3.901,8.721-8.72s-3.906-8.72-8.721-8.72H179.135
	c-4.813,0-8.72,3.901-8.72,8.72S174.322,617.754,179.135,617.754z"/>
<path fill="#C183FA" d="M170.638,268.853v-92.141c0-1.894,0.899-3.338,2.698-4.328c1.798-0.995,3.979-1.494,6.53-1.494
	c3.411,0,6.009,0.618,7.812,1.849c1.794,1.23,3.783,3.883,5.964,7.948l27.399,52.96v-57.075c0-1.894,0.899-3.311,2.697-4.26
	c1.794-0.944,3.975-1.421,6.531-1.421s4.732,0.477,6.53,1.421c1.799,0.949,2.698,2.366,2.698,4.26v92.281
	c0,1.803-0.927,3.22-2.771,4.26c-1.844,1.044-3.997,1.562-6.458,1.562c-5.019,0-8.57-1.939-10.65-5.822l-30.524-57.075v57.075
	c0,1.803-0.922,3.22-2.766,4.26c-1.844,1.044-4.001,1.562-6.463,1.562c-2.552,0-4.732-0.518-6.526-1.562
	C171.537,272.073,170.638,270.656,170.638,268.853z"/>
<path fill="#C183FA" d="M256.533,268.853v-92.141c0-1.798,0.805-3.215,2.417-4.26c1.607-1.04,3.497-1.563,5.677-1.563h50.543
	c1.89,0,3.339,0.809,4.328,2.416c0.995,1.608,1.495,3.457,1.495,5.537c0,2.271-0.522,4.214-1.563,5.822
	c-1.045,1.612-2.467,2.412-4.261,2.412h-40.179v28.394h21.581c1.794,0,3.216,0.736,4.261,2.203c1.04,1.467,1.562,3.193,1.562,5.182
	c0,1.798-0.499,3.429-1.494,4.9c-0.994,1.467-2.434,2.198-4.328,2.198h-21.581v28.54h40.179c1.794,0,3.216,0.804,4.261,2.412
	c1.04,1.612,1.563,3.552,1.563,5.822c0,2.08-0.5,3.929-1.495,5.536c-0.989,1.612-2.438,2.412-4.328,2.412h-50.543
	c-2.18,0-4.069-0.518-5.677-1.558C257.338,272.073,256.533,270.656,256.533,268.853z"/>
<path fill="#C183FA" d="M330.222,178.274c0-1.989,1.275-3.715,3.833-5.182c2.552-1.467,5.204-2.203,7.947-2.203
	c3.411,0,5.445,1.231,6.104,3.692l22.436,76.953l12.067-49.408c0.849-3.411,3.878-5.114,9.083-5.114
	c5.113,0,8.093,1.703,8.947,5.114l12.066,49.408l22.432-76.953c0.663-2.461,2.697-3.692,6.108-3.692
	c2.743,0,5.391,0.736,7.947,2.203c2.558,1.467,3.834,3.193,3.834,5.182c0,0.568-0.096,1.135-0.282,1.703l-28.112,89.302
	c-1.422,4.169-5.445,6.25-12.067,6.25c-2.839,0-5.396-0.545-7.666-1.635c-2.271-1.085-3.647-2.625-4.119-4.615l-9.083-38.331
	l-9.229,38.331c-0.477,1.989-1.848,3.529-4.119,4.615c-2.271,1.09-4.827,1.635-7.666,1.635c-2.934,0-5.536-0.545-7.807-1.635
	c-2.275-1.085-3.692-2.625-4.261-4.615l-28.112-89.302C330.313,179.41,330.222,178.842,330.222,178.274z"/>
<path fill="#C183FA" d="M457.714,258.348c0-2.175,0.826-4.378,2.484-6.604c1.653-2.221,3.524-3.333,5.608-3.333
	c1.227,0,2.625,0.59,4.188,1.771c1.563,1.176,3.075,2.484,4.542,3.906c1.467,1.426,3.574,2.729,6.322,3.91
	c2.743,1.181,5.772,1.767,9.083,1.767c4.546,0,8.329-1.04,11.358-3.125c3.029-2.08,4.542-5.155,4.542-9.224
	c0-2.843-0.827-5.373-2.484-7.598c-1.653-2.221-3.833-4.069-6.531-5.536c-2.693-1.467-5.654-2.888-8.869-4.26
	c-3.221-1.371-6.463-2.911-9.729-4.614s-6.245-3.62-8.942-5.75c-2.698-2.13-4.878-4.969-6.531-8.52
	c-1.657-3.547-2.484-7.594-2.484-12.135c0-5.091,1.018-9.587,3.053-13.475c2.034-3.892,4.755-6.917,8.161-9.079
	s7.048-3.747,10.932-4.755c3.878-1.008,7.998-1.517,12.353-1.517c2.457,0,5.06,0.172,7.808,0.513
	c2.743,0.34,5.654,0.899,8.733,1.676c3.075,0.777,5.582,1.994,7.521,3.643c1.939,1.653,2.912,3.597,2.912,5.836
	c0,2.107-0.663,4.287-1.985,6.54c-1.326,2.252-3.124,3.374-5.396,3.374c-0.854,0-3.174-0.899-6.957-2.698
	c-3.788-1.798-7.998-2.697-12.636-2.697c-5.113,0-9.064,0.972-11.854,2.911c-2.793,1.943-4.191,4.614-4.191,8.021
	c0,2.748,1.135,5.136,3.41,7.171c2.271,2.035,5.087,3.692,8.448,4.969c3.355,1.276,7.003,2.889,10.932,4.828
	c3.924,1.939,7.57,4.046,10.932,6.317c3.356,2.271,6.177,5.559,8.447,9.865c2.271,4.31,3.406,9.351,3.406,15.124
	c0,9.706-3.102,17.199-9.297,22.472c-6.204,5.273-14.365,7.912-24.493,7.912c-8.992,0-16.704-1.849-23.14-5.541
	C460.93,266.727,457.714,262.703,457.714,258.348z"/>
</svg>
